<?xml version="1.0" encoding="utf-8"?>
<!-- Generator: Adobe Illustrator 26.5.0, SVG Export Plug-In . SVG Version: 6.00 Build 0)  -->
<svg version="1.0" id="katman_1" xmlns="http://www.w3.org/2000/svg" xmlns:xlink="http://www.w3.org/1999/xlink" x="0px" y="0px"
	 viewBox="0 0 1190.55 841.89" style="enable-background:new 0 0 1190.55 841.89;" xml:space="preserve">
<style type="text/css">
	.st0{fill:#C6C6C6;}
</style>
<path class="st0" d="M556.36,463.15c13.52,13.76,25.28,28.31,35.21,43.2c-27.16,16.39-54.32,31.45-80.35,44.4
	c-5.26-8.19-11.53-16.16-18.79-23.67L556.36,463.15L556.36,463.15z M894.14,493.47c-3.6,13.12-8.34,25.39-14.07,36.8
	c2.01-13.51,2.63-27.63,1.9-42.18c7.92-11.5,14.22-23.68,18.68-36.52c-0.33,5.55-0.88,11.02-1.66,16.41l0.22,0.03
	C897.88,476.54,896.18,485.04,894.14,493.47L894.14,493.47z M870.47,547.18c-14.5,22.71-33.35,41.51-55.34,56.57
	c4.83-18.14,6.89-37.65,6.24-58.02c21.77-14.53,40.4-31.15,54.77-49.69C876.45,513.97,874.57,531.15,870.47,547.18L870.47,547.18z
	 M807.3,608.87c-21.34,13.32-45.32,23.34-70.95,30.2c3.99-16.58,5.22-34.57,3.8-53.44c13.19-4.69,25.93-9.92,38.1-15.67
	c13.09-6.18,25.51-12.96,37.11-20.31C815.68,570.59,813.03,590.53,807.3,608.87L807.3,608.87z M729.61,640.78
	c-4.53,1.1-9.11,2.11-13.73,3.02c-26.85,5.28-55.13,7.32-83.8,6.26c3.3-12.34,4.51-25.73,3.73-39.79
	c34-4.41,67.33-12.02,98.35-22.57C735.44,606.55,733.97,624.43,729.61,640.78L729.61,640.78z M625.84,649.77
	c-17.28-0.91-34.68-2.93-51.95-6.05c-15.7-2.84-31.31-6.6-46.64-11.22c2.02-5.96,3.14-12.37,3.38-19.1
	c32.61,2.38,66.15,1.51,99.13-2.38C630.48,624.78,629.21,637.84,625.84,649.77L625.84,649.77z M521.4,630.69
	c-25.08-7.96-49.38-18.3-72.14-30.91c8.03,2.2,16.23,4.17,24.56,5.88c16.47,3.37,33.44,5.77,50.71,7.26
	C524.32,619.21,523.29,625.18,521.4,630.69L521.4,630.69z M403.95,569.94c-17.89-13.94-34.17-29.61-48.31-46.96
	c1.51-4.26,3.53-8.24,6.09-11.86C373.57,531.35,387.68,551.07,403.95,569.94L403.95,569.94z M351.23,517.44
	c-18.01-23.3-32.22-49.47-41.43-78.38c3.33-8.22,7.78-15.77,13.4-22.5c7.08,29.78,18.86,59.74,35.21,88.79
	C355.48,509.04,353.09,513.1,351.23,517.44L351.23,517.44z M307.14,430.12c-6.67-24.04-9.93-49.9-9.13-77.48
	c0.42-1.04,0.84-2.06,1.28-3.08c4.49-10.33,10.36-19.83,17.64-28.31c-2.38,20.29-2.25,41.31,0.36,62.63
	c1.03,8.4,2.46,16.86,4.26,25.34C315.72,415.49,310.93,422.51,307.14,430.12L307.14,430.12z M298.93,336.53l0.08-0.9
	c6.1-21.38,14.57-42.22,25.38-62.12l0.43,0.24c2.2-3.97,4.59-7.81,7.15-11.52c-6.31,15.43-10.83,31.67-13.56,48.47l-0.27,0.26
	l0.01,0.01C310.5,318.63,304.11,327.2,298.93,336.53L298.93,336.53z M292.2,371.04c0.83,23.93,4.71,46.51,11.2,67.66
	c-3.91,10.29-6.2,21.49-6.92,33.32c-3.49-8.81-6.32-18.08-8.43-27.83c-0.6-7.88-0.92-15.78-0.92-23.69c0-9.15,0.42-18.31,1.23-27.44
	l0.36,0.03C289.34,385.49,290.51,378.13,292.2,371.04L292.2,371.04z M306.59,448.39c9.82,27.91,24.26,53.24,42.23,75.83
	c-1.55,5.33-2.4,10.99-2.58,16.89c-18.16-15.66-33.1-34.2-43.83-55.77C301.93,472.24,303.3,459.8,306.59,448.39L306.59,448.39z
	 M353.65,530.14c14.48,17.23,31.05,32.79,49.2,46.62c-18.47-8.43-35.47-18.59-50.49-30.57C352.16,540.6,352.59,535.22,353.65,530.14
	L353.65,530.14z M449.19,606.64c22.15,12.01,45.68,21.91,69.93,29.62c-2.25,4.67-5.21,8.91-8.9,12.6l-0.83,0.8
	C488.68,637.69,468.48,623.32,449.19,606.64L449.19,606.64z M525.02,638.09c15.59,4.71,31.45,8.52,47.4,11.41
	c17.15,3.1,34.41,5.13,51.59,6.07c-4.22,12.05-10.73,22.79-19.64,31.75c-29.95-6.69-60.16-18.25-89.46-34.52
	C519.15,648.47,522.51,643.52,525.02,638.09L525.02,638.09z M630.35,655.88c29.49,1.17,58.62-0.88,86.26-6.32
	c3.74-0.73,7.45-1.55,11.13-2.4c-5.38,16.79-13.99,31.78-25.96,44.27c-22.34,3.43-45.67,3.67-69.41,0.76
	c-6.97-0.86-13.98-1.99-21.01-3.39C619.98,679.32,626.28,668.2,630.35,655.88L630.35,655.88z M734.66,645.46
	c25.01-6.43,48.55-15.78,69.74-28.17c-7.14,19.01-17.81,36.07-32.16,50.43l-0.02,0.02c-18.84,10.41-39.26,17.72-60.72,21.97
	C722.19,676.89,729.87,661.94,734.66,645.46L734.66,645.46z M812.62,612.25c19.94-12.79,37.57-28.45,52.09-47.06
	c-2.6,6.71-5.65,13.16-9.16,19.32l0.06,0.03c-11.32,17.95-24.66,34.98-40.04,50.77l-0.01-0.01c-8.09,7.99-16.72,15.15-25.8,21.5
	C799.79,643.45,807.39,628.47,812.62,612.25L812.62,612.25z M900.75,427.6c-2.93,18.18-9.63,35.23-19.45,51.03
	c-1.55-17.36-4.96-35.25-10.19-53.37c-1.85-6.4-3.93-12.82-6.22-19.26c11.23-13.9,19.71-27.58,24.88-40.61
	C896.07,386.46,899.76,407.39,900.75,427.6L900.75,427.6z M875.8,486.92c-13.85,19.51-32.53,36.97-54.74,52.17
	c-0.68-11.33-2.16-22.91-4.45-34.63c-2.68-13.69-6.45-27.58-11.28-41.55c15.36-11.99,29.22-24.22,41.2-36.4
	c4.93-5.02,9.54-10.04,13.82-15.03c1.79,5.18,3.43,10.35,4.91,15.49C871.16,447.43,874.7,467.57,875.8,486.92L875.8,486.92z
	 M815.16,543.02c-12.14,7.87-25.23,15.11-39.09,21.66c-11.65,5.5-23.84,10.52-36.45,15.05c-0.92-8.83-2.38-17.84-4.42-26.97
	c-2.69-12.06-6.36-24.34-10.96-36.7c6.98-3.86,13.83-7.8,20.54-11.82c19.88-11.92,38.52-24.5,55.46-37.39
	c4.42,13.05,7.9,26.02,10.4,38.8C813.11,518.33,814.62,530.84,815.16,543.02L815.16,543.02z M733.69,581.81
	c-30.95,10.61-64.28,18.25-98.3,22.65c-0.63-6.71-1.69-13.55-3.19-20.49c-1.63-7.55-3.78-15.22-6.42-22.93
	c32.23-11.77,63.68-26.09,93.05-42.01c4.36,11.81,7.85,23.54,10.42,35.06C731.33,563.49,732.82,572.75,733.69,581.81L733.69,581.81z
	 M629.33,605.21c-32.86,3.87-66.26,4.71-98.71,2.27c-0.18-4.56-0.73-9.22-1.65-13.96c-0.37-1.91-0.81-3.85-1.3-5.78
	c28.14-4.88,56.69-12.42,84.79-21.99c2.53-0.86,5.06-1.75,7.58-2.64c2.55,7.46,4.63,14.87,6.2,22.17
	C627.69,592.03,628.73,598.68,629.33,605.21L629.33,605.21z M524.47,606.98c-16.71-1.47-33.13-3.81-49.07-7.08
	c-8.45-1.73-16.76-3.72-24.91-5.98c23,0.56,46.89-1.29,71.12-5.18c0.52,1.99,0.97,3.98,1.35,5.94
	C523.78,598.87,524.28,602.97,524.47,606.98L524.47,606.98z M292.62,478.52c1.18,2.79,2.43,5.53,3.74,8.23
	c0.19,4.34,0.57,8.75,1.14,13.21C295.61,492.86,293.99,485.71,292.62,478.52L292.62,478.52z M303.71,500.35
	c11.22,18.72,25.68,34.97,42.69,48.88c0.26,3.73,0.75,7.53,1.5,11.38c0.21,1.1,0.46,2.2,0.71,3.3
	c-12.6-6.64-24.33-14.75-35.03-24.46c-3.18-8.75-5.71-17.43-7.56-25.97C305.06,509.06,304.3,504.68,303.71,500.35L303.71,500.35z
	 M353.08,554.48c14.33,10.81,30.29,20.07,47.47,27.88c-15.72-3.37-30.71-8.26-44.71-14.86c-0.77-2.71-1.42-5.39-1.94-8.06
	C353.57,557.78,353.3,556.12,353.08,554.48L353.08,554.48z M888.33,326.81c1.46,5.7,1.77,11.74,1.02,18.07
	c-0.94-2.56-1.91-5.12-2.93-7.68c-7.41-18.56-16.78-37.05-28.04-55.11c2.06-4.95,3.48-9.64,4.2-14.03
	C873.3,286.87,881.88,306.57,888.33,326.81L888.33,326.81z M886.92,356.34c-4.08,13.67-12.44,28.36-24.29,43.47
	c-8.96-23.71-20.91-47.57-35.73-70.91c12.49-14.43,22.19-27.98,28.39-40.17c10.13,16.66,18.64,33.67,25.45,50.74
	C882.98,345.09,885.04,350.72,886.92,356.34L886.92,356.34z M858.16,405.33c-4.76,5.71-9.99,11.46-15.66,17.23
	c-11.41,11.61-24.58,23.27-39.17,34.74c-8.68-23.74-20.39-47.63-35.03-70.97c18.52-16.08,35.11-31.83,49-46.75
	c1.85-1.98,3.64-3.95,5.39-5.9C837.54,357.29,849.41,381.41,858.16,405.33L858.16,405.33z M798.27,461.22
	c-17.1,13.1-36.02,25.91-56.26,38.04c-6.48,3.88-13.1,7.7-19.83,11.43c-8.2-20.84-19.05-41.88-32.43-62.5
	c26.46-19.12,51.49-38.68,73.87-57.83C778.19,413.68,789.78,437.54,798.27,461.22L798.27,461.22z M716.78,513.66
	c-29.33,15.92-60.75,30.25-92.94,41.98c-5.92-15.9-13.93-31.96-23.95-47.7c3.1-1.89,6.19-3.79,9.29-5.71
	c25.71-15.97,51.22-33.01,75.61-50.46C698.02,472.2,708.72,493.04,716.78,513.66L716.78,513.66z M618.1,557.7
	c-2.39,0.84-4.79,1.69-7.19,2.51c-28.13,9.59-56.71,17.11-84.84,21.94c-2.76-8.83-6.73-17.77-11.87-26.53
	c26.11-13.02,53.3-28.1,80.46-44.51C604.48,526.49,612.32,542.18,618.1,557.7L618.1,557.7z M519.98,583.14
	c-27.3,4.31-54.12,6.01-79.65,4.5c21.21-7.53,44.3-17.5,68.39-29.3C513.57,566.53,517.34,574.88,519.98,583.14L519.98,583.14z
	 M318.33,551.44c10.07,7.97,20.91,14.69,32.39,20.29c2.63,8.49,6.38,17.08,11.22,25.52c-9.33-0.69-17.03-3.02-22.78-7.18
	C330.86,577.34,323.89,564.36,318.33,551.44L318.33,551.44z M358.36,575.26c16.78,7.28,34.82,12.28,53.77,15.28
	c-8.29,2.24-16.16,3.98-23.51,5.15c-6.98,1.11-13.48,1.72-19.45,1.79C364.69,590.15,361.08,582.69,358.36,575.26L358.36,575.26z
	 M893.08,355.55c0.58-2.15,1.07-4.28,1.45-6.39c2.57,10.85,4.56,21.81,5.94,32.83C898.46,373.22,895.99,364.39,893.08,355.55
	L893.08,355.55z M857.01,258.69c0.7,5.13-0.15,11-2.39,17.49c-13.91-21.42-30.5-42.16-49.68-61.61l9.77-9.77
	C831.1,221.49,845.19,239.58,857.01,258.69L857.01,258.69z M851.8,283.11c-5.57,12.05-15.22,25.88-28.09,40.85
	c-16.02-24.49-35.19-48.35-57.37-70.8l34.27-34.27C820.56,239.13,837.65,260.77,851.8,283.11L851.8,283.11z M819.53,328.73
	c-2.05,2.31-4.17,4.65-6.37,7c-13.6,14.6-29.81,30.02-47.92,45.77c-15.78-24.41-34.76-48.16-56.78-70.45l53.57-53.57
	C784.33,280.07,803.55,304.09,819.53,328.73L819.53,328.73z M760.57,385.54c-22.35,19.16-47.42,38.76-73.94,57.92
	c-14.04-20.96-30.67-41.45-49.78-60.81l67.27-67.27C726.07,337.58,744.93,361.24,760.57,385.54L760.57,385.54z M681.67,447.03
	c-24.29,17.38-49.71,34.35-75.33,50.27c-3.19,1.98-6.37,3.94-9.56,5.88c-10.18-15.3-22.24-30.24-36.1-44.36l71.85-71.85
	C651.41,406.1,667.83,426.33,681.67,447.03L681.67,447.03z M505.7,553.47c-24.43,11.95-47.77,21.97-69.09,29.42l51.49-51.49
	C494.88,538.43,500.76,545.85,505.7,553.47L505.7,553.47z M346.12,600.24c5.68,1.9,12.21,2.9,19.49,3.07
	c5.26,8.21,11.55,16.21,18.83,23.75l-8.54,8.54C364.77,624.26,354.82,612.39,346.12,600.24L346.12,600.24z M372.87,603.21
	c5.11-0.23,10.54-0.81,16.25-1.72c8.39-1.34,17.41-3.39,26.97-6.07l-27.32,27.32C382.75,616.49,377.44,609.93,372.87,603.21
	L372.87,603.21z M598.92,692.31c-6.71,5.61-14.25,10.07-22.44,13.4c-28.92-9.21-55.11-23.42-78.42-41.45
	c4.34-1.86,8.39-4.25,12.08-7.17C539.18,673.45,569.15,685.22,598.92,692.31L598.92,692.31z M408.93,566.42
	c-16.71-19.33-31.09-39.58-43.08-60.32l0.8-0.82c3.69-3.69,7.93-6.65,12.6-8.9C386.96,520.67,396.89,544.24,408.93,566.42
	L408.93,566.42z M362.71,500.57c-16.27-29.3-27.83-59.51-34.51-89.46c8.95-8.9,19.69-15.4,31.73-19.62
	c0.94,17.17,2.98,34.44,6.08,51.59c2.88,15.96,6.71,31.82,11.41,47.4C371.99,492.99,367.03,496.34,362.71,500.57L362.71,500.57z
	 M326.72,404.12c-1.39-7.01-2.53-14.01-3.38-20.97c-2.91-23.75-2.68-47.1,0.77-69.45c12.49-11.97,27.46-20.56,44.25-25.94
	c-0.87,3.68-1.67,7.39-2.4,11.13c-5.43,27.65-7.49,56.77-6.32,86.26C347.3,389.21,336.19,395.51,326.72,404.12L326.72,404.12z
	 M325.81,303.98c4.26-21.48,11.58-41.92,22.02-60.77c14.35-14.33,31.39-24.98,50.38-32.11c-12.39,21.19-21.73,44.73-28.17,69.74
	C353.57,285.63,338.63,293.3,325.81,303.98L325.81,303.98z M358.77,225.69c6.33-9.06,13.47-17.67,21.44-25.73l-0.03-0.03
	c15.52-15.12,32.25-28.28,49.87-39.47c6.47-3.75,13.25-6.97,20.32-9.71c-18.64,14.53-34.32,32.17-47.12,52.13
	C387.07,208.1,372.11,215.68,358.77,225.69L358.77,225.69z M445.66,611.67c18.84,16.23,38.53,30.28,58.7,42.11
	c-3.61,2.56-7.58,4.59-11.85,6.09C475.21,645.75,459.57,629.51,445.66,611.67L445.66,611.67z M606.25,693.96
	c8.49,1.81,16.96,3.23,25.38,4.26c21.29,2.61,42.28,2.75,62.55,0.37c-7.92,6.79-16.71,12.35-26.22,16.68
	c-1.72,0.78-3.46,1.51-5.22,2.21c-27.56,0.79-53.39-2.46-77.4-9.14C592.97,704.58,599.99,699.78,606.25,693.96L606.25,693.96z
	 M704.76,697.12c16.76-2.72,32.95-7.22,48.36-13.5c-3.82,2.63-7.76,5.06-11.81,7.28l0.25,0.45c-19.77,10.71-40.47,19.09-61.7,25.15
	l-0.97,0.08c9.38-5.18,17.98-11.56,25.64-19.22L704.76,697.12L704.76,697.12z M567.17,708.94c-11.39,3.3-23.81,4.69-36.89,4.22
	c-21.63-10.74-40.2-25.7-55.9-43.89c5.9-0.18,11.57-1.04,16.9-2.58C513.9,684.67,539.23,699.12,567.17,708.94L567.17,708.94z
	 M438.73,612.64c13.84,18.15,29.4,34.73,46.63,49.21c-5.08,1.06-10.47,1.49-16.06,1.29C457.32,648.11,447.16,631.11,438.73,612.64
	L438.73,612.64z M576.75,712.09c21.07,6.47,43.55,10.34,67.38,11.2c-5.46,1.27-11.1,2.23-16.87,2.88l0.06,0.5
	c-10.74,1.13-21.53,1.7-32.33,1.7c-7.91,0-15.81-0.31-23.7-0.92c-9.79-2.13-19.11-4.98-27.96-8.5
	C555.2,718.27,566.44,715.99,576.75,712.09L576.75,712.09z M415.72,566.24c-12.61-22.76-22.95-47.06-30.92-72.14
	c5.51-1.89,11.49-2.92,17.78-3.13c1.48,17.27,3.88,34.24,7.26,50.71C411.55,550.01,413.51,558.2,415.72,566.24L415.72,566.24z
	 M383,488.25c-4.62-15.34-8.38-30.94-11.22-46.64c-3.12-17.28-5.15-34.67-6.05-51.96c11.94-3.36,24.99-4.63,38.75-3.91
	c-3.9,32.98-4.76,66.52-2.38,99.12C395.37,485.12,388.95,486.23,383,488.25L383,488.25z M365.44,383.41
	c-1.06-28.67,0.97-56.94,6.26-83.79c0.91-4.62,1.92-9.2,3.02-13.72c16.35-4.35,34.23-5.83,53.08-4.56
	c-10.55,31.02-18.16,64.35-22.56,98.35C391.17,378.9,377.77,380.11,365.44,383.41L365.44,383.41z M376.44,279.15
	c6.85-25.63,16.88-49.62,30.2-70.95c18.33-5.73,38.28-8.38,59.23-8.06c-7.35,11.61-14.13,24.02-20.32,37.11
	c-5.75,12.17-10.97,24.92-15.67,38.1C411.01,273.93,393.02,275.15,376.44,279.15L376.44,279.15z M411.76,200.37
	c15.07-22.01,33.89-40.88,56.62-55.37c16.02-4.1,33.19-5.97,51.11-5.66c-18.55,14.37-35.18,33.02-49.72,54.8
	C449.41,193.48,429.89,195.53,411.76,200.37L411.76,200.37z M485.33,135.38c11.39-5.71,23.64-10.43,36.73-14.03
	c8.94-2.17,17.95-3.95,27.02-5.31l0.01,0.1c5.03-0.68,10.13-1.16,15.29-1.45c-12.98,4.46-25.31,10.81-36.93,18.8
	C512.93,132.77,498.83,133.39,485.33,135.38L485.33,135.38z M515.27,711.86c-12.7-1.72-25.85-5.03-39.16-9.87
	c-9.74-10.71-17.87-22.47-24.52-35.1c1.1,0.25,2.2,0.49,3.29,0.71c3.85,0.75,7.65,1.25,11.38,1.5
	C480.21,686.15,496.51,700.64,515.27,711.86L515.27,711.86z M433.14,614.93c7.8,17.19,17.07,33.15,27.89,47.49
	c-1.64-0.23-3.3-0.49-4.97-0.82c-2.66-0.52-5.35-1.17-8.05-1.94C441.41,645.66,436.51,630.66,433.14,614.93L433.14,614.93z
	 M528.56,719.05c2.76,1.34,5.56,2.62,8.41,3.83c-7.4-1.41-14.75-3.09-22.05-5.05C519.53,718.44,524.08,718.85,528.56,719.05
	L528.56,719.05z M421.57,564.98c-2.25-8.14-4.24-16.44-5.97-24.88c-3.27-15.94-5.61-32.37-7.08-49.07
	c4.01,0.19,8.11,0.69,12.29,1.51c1.97,0.38,3.96,0.84,5.95,1.35C422.87,518.1,421.02,541.99,421.57,564.98L421.57,564.98z
	 M408.02,484.88c-2.43-32.45-1.59-65.85,2.27-98.71c6.52,0.6,13.18,1.64,19.94,3.1c7.29,1.57,14.71,3.65,22.17,6.2
	c-0.9,2.52-1.78,5.05-2.64,7.58c-9.57,28.1-17.11,56.64-21.99,84.78c-1.93-0.49-3.87-0.93-5.79-1.3
	C417.24,485.61,412.57,485.06,408.02,484.88L408.02,484.88z M411.04,380.11c4.4-34.03,12.04-67.35,22.65-98.3
	c9.06,0.87,18.32,2.35,27.71,4.45c11.52,2.57,23.25,6.06,35.07,10.42c-15.91,29.38-30.24,60.83-42.01,93.05
	c-7.71-2.64-15.38-4.79-22.93-6.43C424.6,381.81,417.75,380.74,411.04,380.11L411.04,380.11z M435.78,275.88
	c4.52-12.61,9.55-24.8,15.05-36.45c6.55-13.86,13.78-26.95,21.65-39.09c12.19,0.54,24.69,2.05,37.38,4.53
	c12.78,2.5,25.76,5.98,38.8,10.4c-12.89,16.94-25.47,35.58-37.39,55.47c-4.02,6.7-7.96,13.56-11.82,20.53
	c-12.36-4.6-24.64-8.27-36.7-10.96C453.61,278.26,444.61,276.79,435.78,275.88L435.78,275.88z M476.41,194.43
	c15.21-22.21,32.69-40.91,52.21-54.76c17.95,1.02,36.56,4.15,55.48,9.31c6.61,1.8,13.26,3.87,19.93,6.16
	c-4.99,4.27-10.01,8.88-15.04,13.82c-12.18,11.97-24.41,25.84-36.4,41.19c-13.97-4.83-27.86-8.6-41.55-11.28
	C499.31,196.6,487.74,195.11,476.41,194.43L476.41,194.43z M536.9,134.17c15.95-9.9,33.16-16.62,51.53-19.52
	c20.1,1.05,40.87,4.75,61.79,11.02c-13.06,5.16-26.77,13.66-40.72,24.92c-7.97-2.84-15.91-5.35-23.81-7.5
	C569.14,138.58,552.8,135.6,536.9,134.17L536.9,134.17z M464.09,697.2c-12.93-5.57-25.91-12.53-38.66-20.85
	c-4.17-5.75-6.49-13.46-7.18-22.79c8.44,4.84,17.03,8.59,25.52,11.22C449.37,676.28,456.11,687.13,464.09,697.2L464.09,697.2z
	 M666.33,120.97c-2.06,0.38-4.15,0.85-6.26,1.42c-8.59-2.84-17.18-5.26-25.72-7.25C645.08,116.51,655.76,118.46,666.33,120.97
	L666.33,120.97z M424.96,603.36c3,18.95,8,37,15.28,53.78c-7.42-2.72-14.89-6.33-22.21-10.81c0.06-5.97,0.67-12.47,1.78-19.45
	C420.98,619.53,422.72,611.65,424.96,603.36L424.96,603.36z M427.87,575.17c-1.51-25.53,0.19-52.35,4.5-79.65
	c8.25,2.65,16.61,6.43,24.8,11.27C445.36,530.87,435.4,553.96,427.87,575.17L427.87,575.17z M433.36,489.43
	c4.82-28.13,12.35-56.7,21.93-84.83c0.82-2.4,1.65-4.8,2.5-7.19c15.52,5.78,31.21,13.62,46.59,23.42
	c-16.41,27.16-31.49,54.35-44.51,80.47C451.13,496.16,442.19,492.18,433.36,489.43L433.36,489.43z M459.86,391.66
	c11.74-32.19,26.06-63.62,41.98-92.94c20.62,8.06,41.45,18.76,61.88,31.99c-17.45,24.39-34.49,49.9-50.46,75.61
	c-1.92,3.09-3.82,6.19-5.71,9.29C491.83,405.6,475.76,397.58,459.86,391.66L459.86,391.66z M504.81,293.32
	c3.73-6.73,7.55-13.35,11.43-19.83c12.13-20.23,24.94-39.16,38.04-56.26c23.68,8.5,47.54,20.09,70.86,34.65
	c-19.15,22.37-38.71,47.41-57.83,73.87C546.69,312.37,525.65,301.52,504.81,293.32L504.81,293.32z M558.21,212.16
	c11.46-14.58,23.13-27.76,34.74-39.17c5.77-5.67,11.53-10.91,17.23-15.66c23.92,8.75,48.04,20.63,71.65,35.47
	c-1.96,1.75-3.92,3.54-5.9,5.38c-14.91,13.89-30.67,30.48-46.75,49.01C605.84,232.56,581.95,220.84,558.21,212.16L558.21,212.16z
	 M615.7,152.87c15.15-11.88,29.88-20.26,43.58-24.32c5.86,1.96,11.73,4.11,17.59,6.48c16.8,6.77,33.54,15.18,49.95,25.17
	c-12.2,6.2-25.77,15.91-40.21,28.41C663.27,173.78,639.41,161.83,615.7,152.87L615.7,152.87z M670.77,126.13
	c6.29-0.74,12.3-0.41,17.96,1.04c20.23,6.44,39.92,15.02,58.72,25.75c-4.39,0.72-9.07,2.13-14.01,4.19
	c-17.79-11.11-36.01-20.38-54.3-27.75C676.35,128.24,673.56,127.17,670.77,126.13L670.77,126.13z M415.26,669.37
	c-12.15-8.71-24.02-18.64-35.35-29.77l8.54-8.54c7.54,7.28,15.54,13.56,23.76,18.83C412.37,657.17,413.37,663.7,415.26,669.37
	L415.26,669.37z M420.1,599.4c-2.69,9.56-4.74,18.59-6.08,26.98c-0.91,5.71-1.49,11.13-1.72,16.25c-6.73-4.58-13.28-9.88-19.52-15.9
	L420.1,599.4L420.1,599.4z M432.6,578.89c7.45-21.33,17.47-44.67,29.42-69.1c7.62,4.95,15.05,10.83,22.07,17.6L432.6,578.89
	L432.6,578.89z M464.75,504.28c12.96-26.03,28.01-53.19,44.41-80.35c14.89,9.93,29.44,21.69,43.2,35.2l-63.93,63.93
	C480.91,515.81,472.93,509.54,464.75,504.28L464.75,504.28z M512.32,418.71c1.94-3.18,3.9-6.37,5.88-9.56
	c15.92-25.62,32.9-51.04,50.28-75.33c20.69,13.84,40.92,30.26,60.05,49.14l-71.85,71.85C542.57,440.95,527.63,428.89,512.32,418.71
	L512.32,418.71z M572.04,328.87c19.16-26.51,38.75-51.59,57.92-73.94c24.3,15.65,47.96,34.51,70.17,56.44l-67.27,67.27
	C613.49,359.53,593.01,342.9,572.04,328.87L572.04,328.87z M634,250.27c15.75-18.11,31.17-34.33,45.77-47.93
	c2.36-2.2,4.69-4.31,7.01-6.37c24.64,15.98,48.66,35.2,71.24,57.51l-53.57,53.57C682.16,285.02,658.4,266.05,634,250.27L634,250.27z
	 M691.54,191.79c14.99-12.88,28.82-22.54,40.89-28.1c22.33,14.15,43.96,31.25,64.18,51.19l-34.27,34.28
	C739.9,226.98,716.03,207.81,691.54,191.79L691.54,191.79z M739.35,160.88c6.47-2.24,12.33-3.09,17.46-2.38
	c19.11,11.82,37.21,25.91,53.89,42.3l-9.78,9.78C781.48,191.39,760.75,174.8,739.35,160.88L739.35,160.88z M426.37,155.55
	c-1.55,0.91-3.09,1.84-4.62,2.81l0.08,0.13c-17.27,11.44-33.66,24.76-48.88,39.97C311.65,259.76,281,340.13,281,420.5
	c0,80.36,30.65,160.74,91.96,222.04C434.26,703.85,514.63,734.5,595,734.5c80.36,0,160.74-30.65,222.04-91.96
	C878.35,581.24,909,500.86,909,420.5c0-80.36-30.65-160.74-91.96-222.04C755.74,137.15,675.36,106.5,595,106.5
	C536.31,106.5,477.63,122.85,426.37,155.55L426.37,155.55z"/>
<path d="M637.65,381.86c13.76,13.51,28.31,25.28,43.2,35.21c16.39-27.16,31.45-54.32,44.4-80.35c-8.19-5.26-16.16-11.53-23.67-18.79
	L637.65,381.86L637.65,381.86z M667.97,719.64c13.12-3.6,25.39-8.34,36.8-14.07c-13.51,2.01-27.63,2.63-42.18,1.9
	c-11.5,7.92-23.68,14.22-36.52,18.68c5.55-0.33,11.02-0.88,16.41-1.66l0.03,0.22C651.04,723.38,659.54,721.68,667.97,719.64
	L667.97,719.64z M721.68,695.96c22.71-14.49,41.51-33.34,56.57-55.34c-18.14,4.83-37.65,6.89-58.02,6.24
	c-14.53,21.77-31.15,40.4-49.69,54.77C688.47,701.95,705.65,700.07,721.68,695.96L721.68,695.96z M783.37,632.8
	c13.32-21.34,23.34-45.32,30.2-70.95c-16.58,3.99-34.57,5.22-53.44,3.8c-4.69,13.19-9.92,25.93-15.67,38.1
	c-6.18,13.09-12.96,25.51-20.31,37.11C745.09,641.18,765.03,638.53,783.37,632.8L783.37,632.8z M815.28,555.11
	c1.1-4.53,2.11-9.11,3.02-13.73c5.28-26.85,7.32-55.13,6.26-83.8c-12.34,3.3-25.73,4.51-39.79,3.73
	c-4.41,34-12.01,67.33-22.57,98.35C781.05,560.94,798.93,559.47,815.28,555.11L815.28,555.11z M824.28,451.34
	c-0.91-17.28-2.93-34.68-6.05-51.95c-2.84-15.7-6.59-31.31-11.22-46.64c-5.96,2.02-12.37,3.14-19.1,3.38
	c2.39,32.61,1.51,66.15-2.38,99.13C799.28,455.98,812.34,454.71,824.28,451.34L824.28,451.34z M805.19,346.9
	c-7.96-25.08-18.3-49.38-30.91-72.14c2.2,8.04,4.17,16.23,5.88,24.56c3.37,16.47,5.77,33.44,7.26,50.71
	C793.71,349.82,799.68,348.79,805.19,346.9L805.19,346.9z M744.44,229.45c-13.94-17.89-29.61-34.17-46.96-48.32
	c-4.26,1.51-8.24,3.53-11.86,6.09C705.85,199.07,725.57,213.18,744.44,229.45L744.44,229.45z M691.94,176.73
	c-23.3-18.01-49.47-32.22-78.38-41.43c-8.22,3.33-15.77,7.78-22.5,13.4c29.78,7.08,59.74,18.86,88.79,35.21
	C683.54,180.98,687.6,178.59,691.94,176.73L691.94,176.73z M604.63,132.64c-24.05-6.67-49.9-9.93-77.48-9.13
	c-1.04,0.42-2.06,0.84-3.08,1.28c-10.33,4.49-19.83,10.36-28.31,17.64c20.29-2.38,41.31-2.25,62.63,0.36
	c8.4,1.03,16.86,2.46,25.34,4.26C589.99,141.22,597.01,136.42,604.63,132.64L604.63,132.64z M511.03,124.43l-0.9,0.08
	c-21.38,6.1-42.22,14.57-62.12,25.38l0.24,0.43c-3.97,2.2-7.81,4.59-11.52,7.15c15.43-6.31,31.67-10.82,48.47-13.56l0.26-0.27
	l0.01,0.01C493.13,136,501.7,129.61,511.03,124.43L511.03,124.43z M545.54,117.7c23.93,0.83,46.51,4.71,67.66,11.2
	c10.29-3.91,21.49-6.2,33.32-6.92c-8.81-3.49-18.08-6.32-27.83-8.44c-7.88-0.6-15.78-0.92-23.69-0.92c-9.15,0-18.31,0.42-27.44,1.23
	l0.03,0.35C559.99,114.84,552.63,116.01,545.54,117.7L545.54,117.7z M622.89,132.09c27.91,9.82,53.24,24.26,75.83,42.23
	c5.33-1.54,10.99-2.4,16.89-2.58c-15.66-18.16-34.2-33.1-55.77-43.83C646.74,127.43,634.3,128.8,622.89,132.09L622.89,132.09z
	 M704.64,179.15c17.23,14.48,32.79,31.05,46.62,49.2c-8.43-18.47-18.59-35.47-30.57-50.49C715.1,177.66,709.72,178.09,704.64,179.15
	L704.64,179.15z M781.14,274.69c12.01,22.15,21.91,45.68,29.62,69.93c4.67-2.25,8.91-5.21,12.6-8.9l0.8-0.83
	C812.19,314.18,797.82,293.98,781.14,274.69L781.14,274.69z M812.59,350.52c4.71,15.59,8.52,31.45,11.41,47.4
	c3.1,17.15,5.13,34.41,6.07,51.59c12.05-4.22,22.79-10.73,31.75-19.64c-6.69-29.95-18.25-60.16-34.52-89.46
	C822.97,344.65,818.02,348.01,812.59,350.52L812.59,350.52z M830.37,455.85c1.17,29.49-0.88,58.62-6.32,86.26
	c-0.73,3.74-1.55,7.45-2.4,11.13c16.79-5.38,31.79-13.99,44.27-25.96c3.43-22.34,3.67-45.67,0.76-69.41
	c-0.86-6.97-1.99-13.98-3.39-21.01C853.82,445.48,842.7,451.78,830.37,455.85L830.37,455.85z M819.96,560.16
	c-6.43,25.01-15.78,48.55-28.17,69.74c19.01-7.14,36.07-17.81,50.43-32.16l0.02-0.02c10.41-18.84,17.72-39.26,21.97-60.72
	C851.39,547.69,836.44,555.37,819.96,560.16L819.96,560.16z M786.75,638.12c-12.79,19.94-28.45,37.57-47.06,52.09
	c6.71-2.6,13.16-5.65,19.32-9.16l0.03,0.06c17.95-11.32,34.98-24.66,50.77-40.04l-0.01-0.01c7.99-8.08,15.15-16.72,21.5-25.8
	C817.95,625.29,802.97,632.89,786.75,638.12L786.75,638.12z M602.1,726.25c18.18-2.93,35.23-9.63,51.03-19.45
	c-17.36-1.55-35.25-4.96-53.37-10.19c-6.4-1.85-12.82-3.93-19.26-6.22c-13.9,11.23-27.58,19.71-40.61,24.88
	C560.96,721.57,581.89,725.26,602.1,726.25L602.1,726.25z M661.42,701.3c19.51-13.85,36.97-32.53,52.17-54.74
	c-11.33-0.68-22.9-2.16-34.63-4.45c-13.69-2.68-27.58-6.45-41.55-11.28c-11.99,15.36-24.22,29.22-36.4,41.2
	c-5.02,4.93-10.04,9.54-15.03,13.82c5.18,1.79,10.35,3.43,15.49,4.91C621.93,696.66,642.07,700.2,661.42,701.3L661.42,701.3z
	 M717.52,640.66c7.87-12.14,15.11-25.23,21.66-39.09c5.5-11.65,10.52-23.84,15.05-36.45c-8.83-0.92-17.84-2.38-26.97-4.42
	c-12.06-2.69-24.34-6.36-36.7-10.96c-3.86,6.98-7.8,13.83-11.82,20.54c-11.92,19.88-24.5,38.52-37.39,55.46
	c13.05,4.42,26.02,7.9,38.8,10.4C692.83,638.61,705.34,640.12,717.52,640.66L717.52,640.66z M756.31,559.19
	c10.61-30.95,18.25-64.28,22.65-98.3c-6.71-0.63-13.55-1.69-20.49-3.19c-7.55-1.63-15.22-3.78-22.93-6.42
	c-11.77,32.23-26.09,63.68-42.01,93.05c11.81,4.36,23.54,7.85,35.06,10.41C737.99,556.83,747.25,558.32,756.31,559.19L756.31,559.19
	z M779.71,454.83c3.87-32.86,4.71-66.26,2.27-98.71c-4.56-0.18-9.22-0.73-13.96-1.65c-1.91-0.37-3.84-0.81-5.78-1.3
	c-4.88,28.14-12.42,56.69-21.99,84.79c-0.86,2.53-1.75,5.06-2.64,7.58c7.46,2.55,14.87,4.63,22.17,6.2
	C766.53,453.19,773.18,454.23,779.71,454.83L779.71,454.83z M781.48,349.97c-1.47-16.71-3.81-33.13-7.08-49.07
	c-1.73-8.45-3.72-16.76-5.98-24.91c0.56,23-1.29,46.89-5.18,71.12c1.99,0.52,3.98,0.97,5.94,1.35
	C773.37,349.28,777.47,349.78,781.48,349.97L781.48,349.97z M653.02,118.12c2.79,1.18,5.53,2.43,8.23,3.74
	c4.34,0.19,8.75,0.57,13.21,1.14C667.36,121.11,660.21,119.49,653.02,118.12L653.02,118.12z M674.85,129.21
	c18.72,11.22,34.97,25.68,48.88,42.69c3.73,0.26,7.53,0.75,11.38,1.5c1.1,0.21,2.2,0.46,3.3,0.71
	c-6.64-12.6-14.75-24.33-24.46-35.03c-8.75-3.18-17.43-5.71-25.97-7.56C683.56,130.56,679.18,129.8,674.85,129.21L674.85,129.21z
	 M728.98,178.58c10.81,14.33,20.07,30.29,27.88,47.47c-3.37-15.72-8.26-30.71-14.86-44.71c-2.71-0.77-5.39-1.42-8.06-1.94
	C732.28,179.07,730.62,178.8,728.98,178.58L728.98,178.58z M501.31,713.83c5.7,1.46,11.74,1.77,18.07,1.02
	c-2.56-0.94-5.12-1.91-7.68-2.93c-18.56-7.41-37.05-16.78-55.11-28.04c-4.95,2.06-9.64,3.48-14.03,4.2
	C461.37,698.8,481.07,707.38,501.31,713.83L501.31,713.83z M530.84,712.42c13.67-4.08,28.36-12.44,43.47-24.29
	c-23.71-8.96-47.57-20.91-70.91-35.73c-14.43,12.49-27.98,22.19-40.17,28.39c16.66,10.13,33.67,18.64,50.74,25.45
	C519.59,708.48,525.22,710.54,530.84,712.42L530.84,712.42z M579.83,683.66c5.71-4.76,11.46-9.99,17.23-15.66
	c11.61-11.41,23.27-24.58,34.74-39.17c-23.74-8.68-47.63-20.39-70.97-35.03c-16.08,18.53-31.83,35.11-46.75,49
	c-1.98,1.85-3.95,3.64-5.9,5.38C531.79,663.04,555.91,674.91,579.83,683.66L579.83,683.66z M635.72,623.77
	c13.1-17.1,25.91-36.02,38.04-56.26c3.88-6.48,7.7-13.1,11.43-19.83c-20.84-8.2-41.88-19.05-62.5-32.43
	c-19.12,26.46-38.68,51.49-57.83,73.87C588.18,603.69,612.04,615.28,635.72,623.77L635.72,623.77z M688.16,542.28
	c15.92-29.33,30.25-60.75,41.98-92.94c-15.9-5.92-31.96-13.93-47.7-23.95c-1.89,3.1-3.79,6.19-5.71,9.29
	c-15.97,25.71-33.01,51.22-50.46,75.61C646.7,523.52,667.54,534.22,688.16,542.28L688.16,542.28z M732.2,443.6
	c0.84-2.39,1.69-4.79,2.51-7.19c9.59-28.13,17.11-56.71,21.94-84.84c-8.83-2.76-17.77-6.73-26.53-11.87
	c-13.02,26.11-28.1,53.3-44.51,80.46C700.99,429.98,716.68,437.82,732.2,443.6L732.2,443.6z M757.64,345.48
	c4.31-27.3,6.01-54.12,4.5-79.65c-7.53,21.21-17.5,44.3-29.3,68.39C741.03,339.07,749.39,342.84,757.64,345.48L757.64,345.48z
	 M725.94,143.83c7.97,10.07,14.69,20.91,20.29,32.39c8.49,2.63,17.09,6.38,25.52,11.22c-0.69-9.33-3.02-17.03-7.18-22.78
	C751.84,156.36,738.86,149.39,725.94,143.83L725.94,143.83z M749.76,183.86c7.28,16.78,12.28,34.82,15.28,53.77
	c2.24-8.29,3.98-16.16,5.15-23.51c1.11-6.98,1.72-13.48,1.79-19.45C764.65,190.19,757.19,186.58,749.76,183.86L749.76,183.86z
	 M530.05,718.58c-2.15,0.58-4.28,1.07-6.39,1.45c10.85,2.57,21.81,4.56,32.83,5.94C547.72,723.96,538.89,721.49,530.05,718.58
	L530.05,718.58z M433.19,682.51c5.13,0.7,11-0.15,17.49-2.39c-21.42-13.91-42.16-30.5-61.61-49.68l-9.77,9.77
	C395.99,656.6,414.08,670.69,433.19,682.51L433.19,682.51z M457.61,677.3c12.05-5.57,25.88-15.22,40.85-28.09
	c-24.49-16.02-48.35-35.19-70.8-57.37l-34.27,34.27C413.63,646.06,435.27,663.15,457.61,677.3L457.61,677.3z M503.23,645.03
	c2.31-2.05,4.65-4.17,7.01-6.37c14.6-13.6,30.02-29.81,45.77-47.92c-24.41-15.78-48.17-34.76-70.46-56.78l-53.57,53.57
	C454.57,609.83,478.59,629.05,503.23,645.03L503.23,645.03z M560.04,586.07c19.16-22.35,38.76-47.42,57.92-73.94
	c-20.96-14.04-41.45-30.67-60.81-49.78l-67.27,67.27C512.08,551.57,535.74,570.43,560.04,586.07L560.04,586.07z M621.53,507.17
	c17.38-24.29,34.35-49.71,50.27-75.33c1.98-3.19,3.94-6.37,5.88-9.56c-15.31-10.18-30.24-22.24-44.36-36.1l-71.85,71.85
	C580.6,476.91,600.83,493.33,621.53,507.17L621.53,507.17z M727.98,331.2c11.95-24.43,21.97-47.77,29.42-69.09L705.9,313.6
	C712.93,320.38,720.35,326.26,727.98,331.2L727.98,331.2z M774.74,171.62c1.9,5.67,2.9,12.21,3.07,19.49
	c8.21,5.26,16.21,11.55,23.75,18.83l8.54-8.54C798.76,190.27,786.89,180.32,774.74,171.62L774.74,171.62z M777.71,198.37
	c-0.23,5.11-0.81,10.54-1.72,16.25c-1.34,8.39-3.39,17.41-6.07,26.97l27.32-27.32C790.99,208.25,784.43,202.94,777.71,198.37
	L777.71,198.37z M866.81,424.42c5.61-6.71,10.07-14.25,13.4-22.44c-9.21-28.92-23.42-55.11-41.44-78.42
	c-1.86,4.34-4.25,8.39-7.17,12.08C847.95,364.68,859.73,394.65,866.81,424.42L866.81,424.42z M740.92,234.43
	c-19.33-16.71-39.58-31.09-60.32-43.08l-0.82,0.8c-3.69,3.69-6.65,7.93-8.9,12.6C695.17,212.47,718.74,222.39,740.92,234.43
	L740.92,234.43z M675.07,188.21c-29.3-16.27-59.51-27.83-89.46-34.51c-8.9,8.95-15.4,19.69-19.62,31.73
	c17.17,0.94,34.44,2.98,51.59,6.08c15.96,2.88,31.82,6.71,47.4,11.41C667.49,197.49,670.84,192.53,675.07,188.21L675.07,188.21z
	 M578.62,152.22c-7.01-1.39-14.01-2.53-20.97-3.38c-23.75-2.91-47.1-2.68-69.45,0.77c-11.97,12.49-20.56,27.46-25.94,44.25
	c3.68-0.86,7.39-1.67,11.13-2.4c27.65-5.44,56.77-7.49,86.26-6.32C563.71,172.8,570.01,161.69,578.62,152.22L578.62,152.22z
	 M478.48,151.31c-21.48,4.26-41.92,11.58-60.77,22.02c-14.33,14.35-24.98,31.39-32.11,50.38c21.19-12.39,44.73-21.73,69.74-28.17
	C460.13,179.07,467.8,164.13,478.48,151.31L478.48,151.31z M400.19,184.27c-9.06,6.33-17.67,13.47-25.73,21.44l-0.03-0.03
	c-15.12,15.52-28.28,32.25-39.47,49.87c-3.75,6.47-6.97,13.25-9.71,20.32c14.53-18.64,32.16-34.32,52.13-47.12
	C382.6,212.57,390.18,197.6,400.19,184.27L400.19,184.27z M786.17,271.16c16.23,18.83,30.28,38.53,42.11,58.7
	c2.56-3.61,4.59-7.58,6.09-11.84C820.25,300.71,804.01,285.07,786.17,271.16L786.17,271.16z M868.46,431.75
	c1.81,8.49,3.23,16.96,4.26,25.38c2.61,21.29,2.75,42.28,0.37,62.55c6.79-7.92,12.35-16.71,16.68-26.22
	c0.78-1.72,1.51-3.46,2.21-5.22c0.79-27.56-2.46-53.39-9.14-77.4C879.08,418.47,874.28,425.49,868.46,431.75L868.46,431.75z
	 M871.62,530.26c-2.72,16.76-7.22,32.95-13.5,48.36c2.63-3.82,5.06-7.76,7.28-11.81l0.45,0.25c10.71-19.77,19.09-40.47,25.15-61.7
	l0.08-0.97c-5.18,9.38-11.56,17.98-19.22,25.64L871.62,530.26L871.62,530.26z M883.44,392.67c3.3-11.39,4.69-23.81,4.22-36.89
	c-10.74-21.63-25.7-40.2-43.89-55.9c-0.18,5.9-1.04,11.57-2.58,16.9C859.17,339.4,873.62,364.73,883.44,392.67L883.44,392.67z
	 M787.14,264.23c18.15,13.84,34.73,29.4,49.21,46.63c1.06-5.08,1.49-10.47,1.29-16.06C822.61,282.82,805.61,272.66,787.14,264.23
	L787.14,264.23z M886.59,402.25c6.47,21.07,10.34,43.55,11.2,67.38c1.27-5.46,2.23-11.1,2.88-16.87l0.5,0.06
	c1.13-10.74,1.7-21.53,1.7-32.33c0-7.91-0.32-15.81-0.92-23.7c-2.13-9.79-4.98-19.11-8.5-27.96
	C892.77,380.7,890.49,391.94,886.59,402.25L886.59,402.25z M740.74,241.22c-22.76-12.61-47.06-22.95-72.13-30.92
	c-1.89,5.51-2.93,11.49-3.13,17.78c17.26,1.48,34.24,3.88,50.71,7.26C724.51,237.05,732.7,239.01,740.74,241.22L740.74,241.22z
	 M662.75,208.5c-15.34-4.62-30.94-8.38-46.64-11.22c-17.28-3.12-34.67-5.15-51.96-6.05c-3.36,11.94-4.63,24.99-3.91,38.75
	c32.98-3.9,66.52-4.76,99.12-2.38C659.62,220.87,660.73,214.45,662.75,208.5L662.75,208.5z M557.91,190.94
	c-28.67-1.06-56.94,0.97-83.79,6.25c-4.62,0.91-9.2,1.92-13.73,3.02c-4.35,16.35-5.83,34.23-4.56,53.08
	c31.03-10.55,64.35-18.16,98.35-22.57C553.4,216.67,554.61,203.27,557.91,190.94L557.91,190.94z M453.65,201.94
	c-25.63,6.85-49.62,16.88-70.95,30.2c-5.73,18.33-8.38,38.28-8.06,59.23c11.61-7.35,24.02-14.13,37.11-20.32
	c12.17-5.75,24.92-10.98,38.1-15.67C448.43,236.51,449.66,218.52,453.65,201.94L453.65,201.94z M374.87,237.26
	c-22.01,15.07-40.88,33.89-55.37,56.62c-4.11,16.03-5.97,33.19-5.66,51.11c14.37-18.55,33.02-35.18,54.79-49.72
	C367.98,274.91,370.04,255.39,374.87,237.26L374.87,237.26z M309.88,310.83c-5.71,11.39-10.43,23.64-14.03,36.73
	c-2.17,8.94-3.95,17.96-5.31,27.02l0.1,0.01c-0.68,5.03-1.16,10.13-1.45,15.29c4.46-12.98,10.81-25.31,18.8-36.93
	C307.27,338.43,307.89,324.33,309.88,310.83L309.88,310.83z M886.36,340.77c-1.72-12.7-5.03-25.86-9.87-39.16
	c-10.71-9.74-22.47-17.87-35.1-24.52c0.26,1.1,0.5,2.2,0.71,3.29c0.75,3.85,1.25,7.65,1.5,11.38
	C860.65,305.71,875.14,322.01,886.36,340.77L886.36,340.77z M789.43,258.64c17.19,7.8,33.15,17.07,47.49,27.89
	c-0.23-1.64-0.5-3.3-0.82-4.97c-0.52-2.66-1.17-5.35-1.94-8.05C820.16,266.91,805.16,262.01,789.43,258.64L789.43,258.64z
	 M893.55,354.06c1.34,2.76,2.62,5.56,3.83,8.41c-1.42-7.39-3.09-14.75-5.05-22.04C892.94,345.03,893.35,349.58,893.55,354.06
	L893.55,354.06z M739.48,247.07c-8.14-2.25-16.44-4.24-24.88-5.97c-15.94-3.27-32.37-5.6-49.07-7.08c0.19,4.01,0.7,8.11,1.51,12.29
	c0.38,1.97,0.84,3.96,1.35,5.94C692.6,248.37,716.49,246.52,739.48,247.07L739.48,247.07z M659.38,233.52
	c-32.45-2.43-65.85-1.59-98.71,2.27c0.6,6.52,1.64,13.18,3.1,19.94c1.58,7.29,3.65,14.7,6.2,22.17c2.52-0.9,5.05-1.78,7.58-2.64
	c28.1-9.57,56.64-17.11,84.78-21.99c-0.49-1.93-0.93-3.87-1.3-5.79C660.11,242.74,659.56,238.07,659.38,233.52L659.38,233.52z
	 M554.61,236.54c-34.03,4.4-67.35,12.04-98.3,22.65c0.87,9.06,2.35,18.32,4.45,27.71c2.57,11.52,6.06,23.25,10.42,35.07
	c29.38-15.92,60.83-30.24,93.05-42.01c-2.64-7.72-4.79-15.38-6.43-22.93C556.31,250.1,555.24,243.25,554.61,236.54L554.61,236.54z
	 M450.38,261.28c-12.61,4.52-24.8,9.55-36.45,15.05c-13.86,6.55-26.96,13.78-39.09,21.65c0.54,12.19,2.05,24.69,4.53,37.38
	c2.5,12.78,5.98,25.76,10.4,38.8c16.94-12.89,35.58-25.47,55.47-37.39c6.7-4.02,13.56-7.96,20.53-11.82
	c-4.6-12.36-8.27-24.64-10.96-36.7C452.76,279.11,451.29,270.11,450.38,261.28L450.38,261.28z M368.93,301.91
	c-22.21,15.21-40.91,32.69-54.76,52.2c1.02,17.95,4.15,36.56,9.31,55.48c1.8,6.61,3.87,13.26,6.16,19.93
	c4.27-4.99,8.88-10.01,13.82-15.04c11.97-12.19,25.84-24.41,41.2-36.4c-4.83-13.97-8.6-27.86-11.28-41.55
	C371.1,324.81,369.61,313.24,368.93,301.91L368.93,301.91z M308.67,362.4c-9.9,15.95-16.62,33.16-19.51,51.53
	c1.05,20.1,4.75,40.87,11.02,61.79c5.16-13.06,13.66-26.77,24.92-40.72c-2.84-7.96-5.35-15.91-7.5-23.8
	C313.08,394.64,310.1,378.3,308.67,362.4L308.67,362.4z M871.7,289.59c-5.57-12.93-12.53-25.91-20.85-38.66
	c-5.75-4.17-13.46-6.49-22.79-7.18c4.84,8.44,8.59,17.03,11.22,25.52C850.78,274.87,861.63,281.61,871.7,289.59L871.7,289.59z
	 M295.47,491.83c0.38-2.06,0.85-4.15,1.42-6.26c-2.84-8.59-5.26-17.18-7.25-25.72C291.01,470.58,292.96,481.26,295.47,491.83
	L295.47,491.83z M777.86,250.46c18.95,3,37,8,53.78,15.28c-2.72-7.42-6.33-14.89-10.81-22.21c-5.97,0.06-12.47,0.67-19.45,1.78
	C794.03,246.48,786.15,248.21,777.86,250.46L777.86,250.46z M749.67,253.37c-25.53-1.51-52.35,0.19-79.65,4.5
	c2.65,8.25,6.42,16.61,11.27,24.8C705.37,270.86,728.46,260.9,749.67,253.37L749.67,253.37z M663.93,258.86
	c-28.13,4.82-56.7,12.35-84.83,21.93c-2.4,0.82-4.8,1.65-7.19,2.5c5.78,15.52,13.62,31.21,23.42,46.59
	c27.16-16.41,54.35-31.49,80.47-44.51C670.66,276.63,666.68,267.69,663.93,258.86L663.93,258.86z M566.16,285.36
	c-32.19,11.74-63.62,26.06-92.94,41.98c8.06,20.62,18.76,41.45,31.99,61.89c24.39-17.45,49.9-34.49,75.61-50.46
	c3.09-1.92,6.19-3.82,9.29-5.71C580.1,317.33,572.08,301.26,566.16,285.36L566.16,285.36z M467.82,330.31
	c-6.73,3.73-13.35,7.55-19.83,11.43c-20.23,12.13-39.16,24.94-56.26,38.04c8.5,23.68,20.09,47.54,34.65,70.86
	c22.37-19.15,47.41-38.71,73.87-57.83C486.87,372.19,476.02,351.15,467.82,330.31L467.82,330.31z M386.66,383.71
	c-14.58,11.46-27.76,23.13-39.17,34.74c-5.68,5.77-10.91,11.53-15.66,17.23c8.75,23.92,20.63,48.04,35.47,71.65
	c1.75-1.96,3.54-3.92,5.39-5.9c13.89-14.91,30.48-30.67,49.01-46.75C407.06,431.34,395.34,407.45,386.66,383.71L386.66,383.71z
	 M327.37,441.2c-11.88,15.15-20.26,29.88-24.32,43.58c1.96,5.86,4.11,11.73,6.48,17.59c6.77,16.8,15.18,33.54,25.17,49.95
	c6.2-12.2,15.91-25.77,28.41-40.21C348.28,488.77,336.33,464.91,327.37,441.2L327.37,441.2z M300.63,496.27
	c-0.74,6.29-0.41,12.3,1.04,17.96c6.44,20.23,15.02,39.92,25.75,58.72c0.71-4.39,2.13-9.07,4.19-14.01
	c-11.11-17.79-20.38-36.01-27.75-54.3C302.74,501.85,301.67,499.06,300.63,496.27L300.63,496.27z M843.87,240.76
	c-8.71-12.15-18.64-24.02-29.77-35.35l-8.54,8.54c7.28,7.54,13.56,15.54,18.83,23.76C831.67,237.87,838.2,238.86,843.87,240.76
	L843.87,240.76z M773.9,245.6c9.56-2.69,18.59-4.74,26.98-6.08c5.71-0.91,11.13-1.49,16.25-1.72c-4.58-6.73-9.88-13.28-15.9-19.52
	L773.9,245.6L773.9,245.6z M753.39,258.1c-21.33,7.45-44.67,17.47-69.1,29.42c4.95,7.62,10.83,15.04,17.6,22.07L753.39,258.1
	L753.39,258.1z M678.78,290.25c-26.03,12.96-53.19,28.01-80.35,44.41c9.93,14.89,21.69,29.44,35.2,43.2l63.93-63.93
	C690.31,306.41,684.04,298.43,678.78,290.25L678.78,290.25z M593.21,337.82c-3.18,1.94-6.37,3.9-9.56,5.88
	c-25.62,15.92-51.05,32.9-75.33,50.28c13.84,20.69,30.26,40.92,49.14,60.05l71.85-71.85C615.45,368.07,603.39,353.12,593.21,337.82
	L593.21,337.82z M503.37,397.54c-26.51,19.16-51.59,38.75-73.93,57.92c15.64,24.3,34.5,47.96,56.43,70.17l67.27-67.27
	C534.03,438.99,517.4,418.5,503.37,397.54L503.37,397.54z M424.77,459.5c-18.11,15.75-34.33,31.17-47.93,45.77
	c-2.2,2.36-4.31,4.69-6.37,7c15.98,24.64,35.2,48.66,57.51,71.24l53.57-53.57C459.52,507.66,440.55,483.91,424.77,459.5
	L424.77,459.5z M366.29,517.04c-12.87,14.99-22.54,28.82-28.11,40.89c14.15,22.33,31.25,43.96,51.19,64.18l34.28-34.28
	C401.48,565.4,382.31,541.53,366.29,517.04L366.29,517.04z M335.38,564.85c-2.24,6.47-3.09,12.33-2.38,17.46
	c11.82,19.11,25.91,37.21,42.3,53.89l9.78-9.78C365.89,606.98,349.3,586.25,335.38,564.85L335.38,564.85z M330.05,251.87
	c0.91-1.56,1.84-3.1,2.81-4.62l0.13,0.08c11.44-17.27,24.76-33.66,39.97-48.88C434.26,137.15,514.63,106.5,595,106.5
	c80.36,0,160.74,30.65,222.04,91.96C878.35,259.76,909,340.13,909,420.5c0,80.36-30.65,160.74-91.96,222.04
	C755.74,703.85,675.36,734.5,595,734.5c-80.36,0-160.74-30.65-222.04-91.96C311.65,581.24,281,500.86,281,420.5
	C281,361.81,297.35,303.13,330.05,251.87L330.05,251.87z"/>
</svg>
